<?xml version="1.0" encoding="iso-8859-1"?>
<!-- Generator: Adobe Illustrator 19.0.0, SVG Export Plug-In . SVG Version: 6.00 Build 0)  -->
<svg version="1.1" id="Layer_1" xmlns="http://www.w3.org/2000/svg" xmlns:xlink="http://www.w3.org/1999/xlink" x="0px" y="0px"
	 viewBox="0 0 512 512" style="enable-background:new 0 0 512 512;" xml:space="preserve">
<g>
	<g>
		<path d="M300.121,245.469c-0.145-0.7-0.356-1.402-0.634-2.08c-0.278-0.669-0.623-1.313-1.024-1.914
			c-0.412-0.613-0.868-1.181-1.391-1.693c-0.512-0.512-1.08-0.979-1.692-1.391c-0.601-0.401-1.247-0.746-1.914-1.024
			c-0.668-0.278-1.369-0.49-2.081-0.634c-1.436-0.289-2.916-0.289-4.352,0c-0.712,0.145-1.414,0.356-2.081,0.634
			c-0.679,0.278-1.325,0.623-1.926,1.024c-0.612,0.412-1.18,0.879-1.692,1.391s-0.979,1.08-1.38,1.693
			c-0.401,0.601-0.746,1.245-1.024,1.914c-0.278,0.678-0.49,1.38-0.634,2.081c-0.145,0.722-0.223,1.458-0.223,2.182
			c0,0.722,0.078,1.458,0.223,2.17c0.145,0.712,0.356,1.414,0.634,2.08c0.278,0.679,0.623,1.325,1.024,1.926
			c0.401,0.612,0.868,1.18,1.38,1.692c0.512,0.512,1.08,0.981,1.692,1.38c0.601,0.401,1.247,0.746,1.926,1.024
			c0.668,0.278,1.369,0.501,2.081,0.634c0.712,0.145,1.447,0.223,2.17,0.223c2.938,0,5.799-1.191,7.869-3.262
			c0.523-0.512,0.979-1.08,1.391-1.692c0.401-0.601,0.746-1.247,1.024-1.926c0.278-0.668,0.49-1.368,0.634-2.08
			c0.145-0.714,0.211-1.448,0.211-2.17C300.333,246.927,300.266,246.191,300.121,245.469z"/>
	</g>
</g>
<g>
	<g>
		<path d="M478.609,409.043c-6.147,0-11.13,4.984-11.13,11.13c0,18.412-14.979,33.391-33.391,33.391
			c-18.412,0-33.391-14.979-33.391-33.391c0-6.146-4.983-11.13-11.13-11.13c-6.147,0-11.13,4.984-11.13,11.13
			c0,18.412-14.979,33.391-33.391,33.391c-18.412,0-33.391-14.979-33.391-33.391c0-6.146-4.983-11.13-11.13-11.13
			s-11.13,4.984-11.13,11.13c0,18.412-14.979,33.391-33.391,33.391c-18.412,0-33.391-14.979-33.391-33.391
			c0-6.146-4.983-11.13-11.13-11.13s-11.13,4.984-11.13,11.13c0,18.412-14.979,33.391-33.391,33.391
			c-18.412,0-33.391-14.979-33.391-33.391c0-6.146-4.983-11.13-11.13-11.13s-11.13,4.984-11.13,11.13
			c0,18.412-14.979,33.391-33.391,33.391c-18.412,0-33.391-14.979-33.391-33.391c0-6.146-4.983-11.13-11.13-11.13
			s-11.13,4.984-11.13,11.13c0,30.687,24.966,55.652,55.652,55.652c18.186,0,34.36-8.769,44.522-22.3
			c10.162,13.53,26.336,22.3,44.522,22.3s34.36-8.769,44.522-22.3c10.162,13.53,26.336,22.3,44.522,22.3s34.36-8.769,44.522-22.3
			c10.162,13.53,26.336,22.3,44.522,22.3c18.186,0,34.36-8.769,44.522-22.3c10.162,13.53,26.336,22.3,44.522,22.3
			c30.687,0,55.652-24.966,55.652-55.652C489.739,414.027,484.756,409.043,478.609,409.043z"/>
	</g>
</g>
<g>
	<g>
		<path d="M500.87,303.304c-6.147,0-11.13,4.984-11.13,11.13c0,18.412-14.979,33.391-33.391,33.391
			c-18.412,0-33.391-14.979-33.391-33.391c0-6.146-4.983-11.13-11.13-11.13c-6.147,0-11.13,4.984-11.13,11.13
			c0,18.412-14.979,33.391-33.391,33.391c-0.747,0-1.487-0.031-2.225-0.079c8.536-16.687,13.355-35.578,13.355-55.573
			c0-17.168-3.558-33.517-9.965-48.361c-0.167-0.452-0.355-0.893-0.577-1.316c-17.651-39.603-55.724-68.169-100.763-72.248v-25.508
			l147.753-42.215c4.778-1.364,8.073-5.731,8.073-10.701s-3.295-9.337-8.073-10.702L259.058,36.602
			c-0.071-0.02-0.144-0.029-0.215-0.048c-0.292-0.077-0.588-0.145-0.888-0.198c-0.135-0.023-0.27-0.043-0.405-0.062
			c-0.26-0.037-0.523-0.063-0.789-0.081c-0.156-0.011-0.311-0.02-0.466-0.023c-0.099-0.002-0.195-0.014-0.294-0.014
			c-0.161,0-0.317,0.018-0.476,0.023c-0.147,0.007-0.294,0.01-0.441,0.022c-0.301,0.024-0.594,0.066-0.887,0.114
			c-0.098,0.017-0.196,0.026-0.293,0.044c-0.816,0.156-1.599,0.4-2.342,0.722c-0.056,0.023-0.108,0.053-0.164,0.079
			c-0.308,0.14-0.609,0.293-0.902,0.459c-0.105,0.06-0.206,0.125-0.308,0.188c-0.242,0.148-0.476,0.304-0.705,0.47
			c-0.06,0.043-0.125,0.078-0.185,0.122c-0.051,0.039-0.096,0.085-0.147,0.125c-0.219,0.171-0.429,0.352-0.634,0.539
			c-0.095,0.087-0.193,0.169-0.284,0.258c-0.26,0.254-0.509,0.52-0.744,0.798c-0.021,0.024-0.046,0.048-0.066,0.072
			c-0.255,0.308-0.491,0.633-0.712,0.968c-0.053,0.081-0.1,0.166-0.151,0.249c-0.161,0.258-0.315,0.523-0.455,0.795
			c-0.053,0.105-0.102,0.21-0.152,0.316c-0.124,0.26-0.238,0.526-0.342,0.798c-0.043,0.112-0.085,0.225-0.124,0.338
			c-0.095,0.275-0.176,0.553-0.249,0.836c-0.03,0.115-0.062,0.228-0.088,0.343c-0.067,0.295-0.116,0.595-0.159,0.899
			c-0.014,0.106-0.037,0.209-0.048,0.317c-0.046,0.405-0.073,0.816-0.073,1.233v89.043v33.902
			c-45.038,4.078-83.112,32.644-100.763,72.247c-0.221,0.423-0.411,0.864-0.577,1.317c-6.408,14.845-9.965,31.194-9.965,48.361
			c0,19.995,4.819,38.886,13.355,55.573c-0.738,0.048-1.478,0.079-2.225,0.079c-18.412,0-33.391-14.979-33.391-33.391
			c0-6.146-4.983-11.13-11.13-11.13s-11.13,4.984-11.13,11.13c0,18.412-14.979,33.391-33.391,33.391
			c-18.412,0-33.391-14.979-33.391-33.391c0-6.146-4.983-11.13-11.13-11.13S0,308.288,0,314.434
			c0,30.687,24.966,55.652,55.652,55.652c18.186,0,34.36-8.769,44.522-22.3c10.162,13.53,26.336,22.3,44.522,22.3
			c5.218,0,10.312-0.708,15.228-2.107c22.442,28.383,57.167,46.629,96.077,46.629s73.635-18.246,96.077-46.629
			c4.916,1.399,10.01,2.107,15.228,2.107c18.186,0,34.36-8.769,44.522-22.3c10.162,13.53,26.336,22.3,44.522,22.3
			c30.687,0,55.652-24.966,55.652-55.652C512,308.288,507.017,303.304,500.87,303.304z M267.13,62.059l104.181,29.766
			L267.13,121.592V62.059z M256,392.347c-55.236,0-100.174-44.938-100.174-100.174c0-11.705,2.025-22.942,5.73-33.392H256
			c6.147,0,11.13-4.984,11.13-11.13s-4.983-11.13-11.13-11.13h-83.25c17.992-26.827,48.592-44.521,83.25-44.521
			s65.258,17.694,83.25,44.521h-16.838c-6.147,0-11.13,4.984-11.13,11.13s4.983,11.13,11.13,11.13h28.032
			c3.705,10.45,5.73,21.688,5.73,33.392C356.174,347.409,311.236,392.347,256,392.347z"/>
	</g>
</g>
<g>
</g>
<g>
</g>
<g>
</g>
<g>
</g>
<g>
</g>
<g>
</g>
<g>
</g>
<g>
</g>
<g>
</g>
<g>
</g>
<g>
</g>
<g>
</g>
<g>
</g>
<g>
</g>
<g>
</g>
</svg>
