<?xml version="1.0" encoding="UTF-8"?>
<svg version="1.1" id="Capa_1" xmlns="http://www.w3.org/2000/svg" xmlns:xlink="http://www.w3.org/1999/xlink" x="0px" y="0px"
	 viewBox="0 0 490 490" style="enable-background:new 0 0 490 490;" xml:space="preserve">
 <g>
  <path d="m272.2 396.67v-100.21h20.234v44.5l40.879-44.5h27.207l-37.734 39.031 39.785 61.184h-26.18l-27.551-47.031-16.406 16.746v30.285zm99.695 4.7852 21.941 2.6641c0.36719 2.5547 1.207 4.3086 2.5312 5.2656 1.8242 1.3672 4.6914 2.0508 8.6133 2.0508 5.0117 0 8.7734-0.75391 11.277-2.2578 1.6875-1.0039 2.9648-2.6211 3.8281-4.8516 0.59375-1.5977 0.89062-4.5352 0.89062-8.8203v-10.594c-5.7422 7.8359-12.988 11.758-21.738 11.758-9.7539 0-17.477-4.125-23.176-12.375-4.4648-6.5156-6.6992-14.629-6.6992-24.336 0-12.168 2.9297-21.465 8.7852-27.891 5.8555-6.4258 13.137-9.6367 21.84-9.6367 8.9805 0 16.383 3.9414 22.219 11.824v-10.184h17.977v65.145c0 8.5703-0.70312 14.973-2.1172 19.211-1.4141 4.2383-3.3945 7.5625-5.9492 9.9805-2.5508 2.4141-5.957 4.3047-10.219 5.6719-4.2617 1.3672-9.6484 2.0508-16.168 2.0508-12.305 0-21.031-2.1055-26.18-6.3242-5.1523-4.2148-7.7266-9.5586-7.7266-16.027 0-0.64062 0.023437-1.4141 0.070313-2.3242zm17.156-42.59c0 7.7031 1.4922 13.344 4.4805 16.918 2.9844 3.5781 6.6641 5.3672 11.039 5.3672 4.6953 0 8.6562-1.832 11.895-5.5039 3.2344-3.668 4.8516-9.1016 4.8516-16.301 0-7.5195-1.5469-13.102-4.6484-16.75-3.0977-3.6445-7.0156-5.4688-11.758-5.4688-4.6016 0-8.3945 1.7891-11.379 5.3672-2.9883 3.5781-4.4805 9.0352-4.4805 16.371zm-39.055-148.86c-25.773 0-46.668-20.895-46.668-46.668 0-25.773 20.895-46.664 46.668-46.664s46.668 20.891 46.668 46.664c0 25.773-20.895 46.668-46.668 46.668zm0-23.332c12.887 0 23.332-10.449 23.332-23.336s-10.445-23.332-23.332-23.332-23.332 10.445-23.332 23.332 10.445 23.336 23.332 23.336zm-86.547 11.664c-4.4414-10.977-6.7852-22.816-6.7852-35 0-51.547 41.785-93.332 93.332-93.332s93.332 41.785 93.332 93.332c0 12.184-2.3438 24.023-6.7852 35h11.148c16.578 0 30.883 11.633 34.262 27.863l48.613 233.33c3.9414 18.926-8.2031 37.461-27.129 41.402-2.3477 0.49219-4.7383 0.73828-7.1367 0.73828h-292.61c-19.328 0-35-15.672-35-35 0-2.3984 0.24609-4.793 0.73438-7.1406l48.613-233.33c3.3789-16.23 17.684-27.863 34.262-27.863zm29.086 4.9922c5.3945 7.7344-0.13672 18.344-9.5664 18.344h-30.668c-5.5234 0-10.293 3.875-11.418 9.2852l-48.613 233.34c-0.16406 0.78125-0.24609 1.5781-0.24609 2.3789 0 6.4414 5.2266 11.664 11.668 11.664h292.61c0.80078 0 1.5977-0.082031 2.3789-0.24219 6.3086-1.3164 10.355-7.4961 9.043-13.801l-48.613-233.34c-1.125-5.4102-5.8945-9.2852-11.418-9.2852h-30.668c-9.4297 0-14.961-10.609-9.5664-18.344 8.1211-11.645 12.539-25.473 12.539-39.992 0-38.66-31.34-70-70-70s-70 31.34-70 70c0 14.52 4.418 28.348 12.539 39.992z" fill-rule="evenodd"/>
 </g>
</svg>
