<svg width="422" height="359" viewBox="0 0 422 359" fill="none" xmlns="http://www.w3.org/2000/svg">
<circle cx="210" cy="61" r="51" stroke="#787878" stroke-width="20"/>
<line x1="20" y1="340.752" x2="401.03" y2="340.752" stroke="#787878" stroke-width="30" stroke-linecap="round"/>
<line x1="104" y1="74" x2="153" y2="74" stroke="#787878" stroke-width="30" stroke-linecap="round"/>
<line x1="270" y1="75" x2="320" y2="75" stroke="#787878" stroke-width="30" stroke-linecap="round"/>
<line x1="320.518" y1="76.5071" x2="406.044" y2="339.728" stroke="#787878" stroke-width="30" stroke-linecap="round"/>
<line x1="15.6431" y1="337.851" x2="101.169" y2="74.6308" stroke="#787878" stroke-width="30" stroke-linecap="round"/>
<path d="M141.88 249C140.941 249 140.472 248.488 140.472 247.464V166.696C140.472 165.672 140.941 165.16 141.88 165.16H154.296C155.32 165.16 155.832 165.672 155.832 166.696V188.712C155.832 190.333 155.789 192.04 155.704 193.832C155.704 195.539 155.704 197.245 155.704 198.952C155.704 200.573 155.619 202.237 155.448 203.944H155.704C157.411 201.64 159.16 199.336 160.952 197.032C162.744 194.728 164.579 192.424 166.456 190.12L187.192 165.928C187.619 165.416 188.216 165.16 188.984 165.16H204.472C205.069 165.16 205.453 165.331 205.624 165.672C205.88 166.013 205.795 166.44 205.368 166.952L177.208 199.208L207.928 247.208C208.269 247.72 208.355 248.147 208.184 248.488C208.013 248.829 207.629 249 207.032 249H191.672C190.904 249 190.307 248.659 189.88 247.976L166.584 211.112L155.832 223.272V247.464C155.832 248.488 155.32 249 154.296 249H141.88ZM244.915 250.536C238.686 250.536 233.224 249.341 228.531 246.952C223.838 244.477 220.211 240.893 217.651 236.2C215.091 231.507 213.811 225.747 213.811 218.92V195.24C213.811 185 216.798 177.192 222.771 171.816C228.83 166.355 237.107 163.624 247.603 163.624C255.112 163.624 261.427 164.819 266.547 167.208C271.752 169.597 275.55 172.925 277.939 177.192C280.414 181.373 281.267 186.195 280.499 191.656C280.414 192.68 279.902 193.192 278.963 193.192L266.547 193.064C265.523 193.064 265.054 192.552 265.139 191.528C265.31 188.456 264.755 185.853 263.475 183.72C262.28 181.501 260.403 179.837 257.843 178.728C255.283 177.619 251.998 177.064 247.987 177.064C241.758 177.064 237.064 178.6 233.907 181.672C230.75 184.659 229.171 189.309 229.171 195.624V218.536C229.171 224.936 230.707 229.629 233.779 232.616C236.936 235.603 241.587 237.096 247.731 237.096C253.704 237.096 258.27 235.731 261.427 233C264.584 230.184 266.163 226.131 266.163 220.84V216.744H248.883C247.859 216.744 247.347 216.232 247.347 215.208V206.632C247.347 205.693 247.859 205.224 248.883 205.224H279.347C279.774 205.224 280.115 205.352 280.371 205.608C280.627 205.864 280.755 206.205 280.755 206.632V230.184C280.755 233.085 280.798 236.029 280.883 239.016C281.054 242.003 281.352 244.776 281.779 247.336C281.95 247.848 281.864 248.275 281.523 248.616C281.267 248.872 280.926 249 280.499 249H270.515C270.088 249 269.747 248.915 269.491 248.744C269.235 248.488 269.022 248.147 268.851 247.72C268.68 246.696 268.51 245.459 268.339 244.008C268.254 242.557 268.168 241.149 268.083 239.784H267.827C266.376 242.003 264.542 243.923 262.323 245.544C260.19 247.165 257.672 248.403 254.771 249.256C251.87 250.109 248.584 250.536 244.915 250.536Z" fill="#BDC8C9"/>
</svg>
